<svg width="152" height="36" viewBox="0 0 152 36" fill="none" xmlns="http://www.w3.org/2000/svg" xmlns:xlink="http://www.w3.org/1999/xlink">
<svg x="0" y="0" width="36" height="36" viewBox="0 0 48 48">
<defs>
    <style>
      @keyframes mysql-ani {
        100% { transform: rotate(-360deg); }
      }
      #mysql-whale {
        animation: mysql-ani 5s linear infinite;
        transform-origin: 22px 28px;
      }
    </style>
    <mask id="mysql-mask">
      <rect x="0" y="0" width="48" height="26.5" fill="white" />
    </mask>
  </defs>
  <path fill="#00796b" d="M0.002,35.041h1.92v-7.085l2.667,6.057c0.329,0.755,0.779,1.022,1.662,1.022 s1.315-0.267,1.644-1.022l2.667-5.902v6.93h1.92v-7.258c0-0.697-0.277-1.035-0.849-1.209c-1.367-0.43-2.285-0.059-2.7,0.872 l-2.735,6.16l-2.649-6.16c-0.398-0.93-1.332-1.302-2.7-0.872C0.277,26.748,0,27.085,0,27.782v7.258H0.002z"/>
  <path fill="#00796b" d="M13.441,29.281h1.92v4.055c-0.015,0.2,0.064,0.731,0.99,0.745c0.472,0.008,2.821,0,2.85,0v-4.8h1.92 c0.008,0,0,5.968,0,5.993c0.01,1.472-1.828,1.662-2.673,1.687h-5.006v-0.96c0.01,0,4.787,0.001,4.801,0 c1.088-0.115,0.959-0.714,0.959-0.896v-0.064H16.19c-1.67-0.015-2.735-0.751-2.747-1.59C13.441,33.373,13.479,29.317,13.441,29.281 z"/>
  <path fill="#f57f17" d="M22.081,35.041h4.807c0.63,0,1.242-0.132,1.728-0.36c0.81-0.372,1.144-0.875,1.144-1.536v-1.368 c0-1.476-1.83-1.536-2.88-1.536h-1.92c-0.755,0-0.87-0.456-0.96-0.96v-0.96c0.09-0.384,0.258-0.9,0.923-0.96 c0.773,0,4.836,0,4.836,0v-0.96h-4.566c-0.755,0-3.114,0.09-3.114,1.92v1.187c0,0.84,0.738,1.524,2.34,1.692 c0.18,0.012,0.36,0.024,0.539,0.024c0,0,1.866-0.036,1.92-0.024c1.08,0,0.96,0.84,0.96,0.96v0.96c0,0.132-0.03,0.96-0.971,0.96 c-0.072,0-4.789,0-4.789,0V35.041z"/>
  <path fill="#f57f17" d="M40.32,33.08c0,1.159,0.655,1.809,2.392,1.939c0.162,0.011,0.325,0.021,0.488,0.021H48v-0.96h-4.435 c-0.991,0-1.325-0.416-1.325-1.011v-6.669h-1.92V33.08z"/>
  <path fill="#f57f17" d="M30.704,33.121v-4.8c0-1.02,0.5-1.724,1.916-1.92h0.672h3.447h0.525 c1.416,0.196,2.08,0.899,2.08,1.92v4.782c0,0.827-0.215,1.271-0.916,1.559L39.916,36h-2.16l-1.07-0.96h-1.257l-2.136,0.012 c-0.309,0-0.635-0.043-0.993-0.141C31.226,34.618,30.704,34.054,30.704,33.121z M32.624,33.121c0.098,0.467,0.473,0.96,1.14,0.96 h1.864l-1.068-0.96h2.175l0.519,0.482c0,0,0.186-0.152,0.186-0.482c0-0.33-0.016-4.8-0.016-4.8c-0.098-0.434-0.538-0.96-1.188-0.96 h-2.471c-0.749,0-1.14,0.548-1.14,1.058L32.624,33.121L32.624,33.121z"/>
  <g mask="url(#mysql-mask)">
  <g id="mysql-whale">
    <path fill="#00796b" d="M46.199,25.389c-1.031-0.028-1.818,0.068-2.491,0.351c-0.191,0.081-0.496,0.083-0.528,0.323 c0.105,0.11,0.121,0.275,0.205,0.41c0.16,0.26,0.432,0.609,0.674,0.791c0.265,0.2,0.538,0.414,0.821,0.587 c0.504,0.307,1.067,0.483,1.553,0.791c0.286,0.181,0.57,0.411,0.85,0.615c0.138,0.102,0.23,0.259,0.41,0.323 c0-0.01,0-0.019,0-0.029c-0.094-0.12-0.119-0.285-0.205-0.411c-0.127-0.127-0.254-0.254-0.381-0.381 c-0.372-0.494-0.846-0.929-1.348-1.289c-0.401-0.288-1.298-0.677-1.466-1.143c-0.01-0.01-0.019-0.019-0.03-0.03 c0.284-0.032,0.617-0.135,0.879-0.205c0.441-0.118,0.834-0.087,1.289-0.205c0.205-0.059,0.41-0.117,0.615-0.176 c0-0.039,0-0.078,0-0.117c-0.23-0.236-0.395-0.548-0.645-0.762c-0.657-0.559-1.373-1.117-2.11-1.583 c-0.409-0.258-0.915-0.426-1.348-0.645c-0.146-0.074-0.402-0.112-0.498-0.234c-0.228-0.29-0.351-0.659-0.527-0.996 c-0.368-0.708-0.73-1.482-1.055-2.227c-0.223-0.508-0.368-1.01-0.645-1.466c-1.331-2.188-2.764-3.509-4.982-4.807 c-0.472-0.276-1.041-0.385-1.642-0.528c-0.323-0.019-0.645-0.039-0.968-0.059c-0.197-0.083-0.401-0.323-0.587-0.44 c-0.735-0.465-2.621-1.475-3.165-0.147c-0.344,0.838,0.514,1.656,0.821,2.081c0.215,0.298,0.491,0.632,0.645,0.968 c0.101,0.22,0.119,0.441,0.205,0.674c0.213,0.574,0.55,1.228,0.826,1.759c0.139,0.269,0.293,0.551,0.469,0.791 c0.108,0.147,0.293,0.212,0.323,0.44c-0.181,0.253-0.191,0.646-0.293,0.968c-0.458,1.445-0.285,3.24,0.381,4.308 c0.204,0.328,0.686,1.032,1.348,0.762c0.579-0.236,0.45-0.967,0.615-1.612c0.037-0.146,0.014-0.253,0.088-0.351 c0,0.01,0,0.019,0,0.03c0.176,0.351,0.351,0.704,0.528,1.055c0.391,0.629,1.084,1.286,1.67,1.73 c0.304,0.23,0.544,0.628,0.938,0.762c0-0.01,0-0.019,0-0.03c-0.01,0-0.019,0-0.03,0c-0.076-0.119-0.196-0.168-0.293-0.264 c-0.229-0.225-0.485-0.504-0.674-0.762c-0.534-0.725-1.006-1.519-1.436-2.345c-0.205-0.395-0.384-0.829-0.557-1.231 c-0.067-0.155-0.066-0.389-0.205-0.469c-0.19,0.294-0.468,0.532-0.615,0.879c-0.234,0.555-0.265,1.233-0.351,1.934 c-0.052,0.018-0.029,0.006-0.059,0.029c-0.408-0.099-0.552-0.518-0.704-0.879c-0.384-0.912-0.455-2.38-0.117-3.429 c0.087-0.272,0.482-1.127,0.323-1.378c-0.076-0.251-0.328-0.396-0.468-0.587c-0.175-0.236-0.348-0.548-0.469-0.821 c-0.314-0.711-0.612-1.538-0.943-2.257c-0.158-0.344-0.425-0.691-0.645-0.996c-0.243-0.338-0.516-0.587-0.704-0.996 c-0.067-0.145-0.158-0.378-0.059-0.528c0.032-0.101,0.076-0.143,0.176-0.176c0.17-0.132,0.643,0.043,0.821,0.117 c0.47,0.195,0.862,0.381,1.26,0.645c0.191,0.127,0.384,0.372,0.615,0.44c0.088,0,0.176,0,0.264,0 c0.413,0.095,0.875,0.03,1.26,0.147c0.682,0.207,1.292,0.529,1.846,0.879c1.69,1.067,3.071,2.585,4.016,4.397 c0.152,0.292,0.218,0.57,0.351,0.879c0.27,0.624,0.611,1.266,0.879,1.876c0.268,0.609,0.53,1.223,0.909,1.73 c0.2,0.266,0.97,0.409,1.319,0.557c0.245,0.104,0.647,0.211,0.879,0.351c0.444,0.268,0.874,0.587,1.289,0.879 C45.528,24.803,46.167,25.124,46.199,25.389z"/>
    <path fill="#00796b" d="M33.098,14.223c-0.215-0.004-0.367,0.023-0.528,0.059c0,0.01,0,0.019,0,0.03c0.01,0,0.019,0,0.03,0 c0.103,0.21,0.283,0.347,0.41,0.528c0.098,0.205,0.195,0.41,0.293,0.615c0.01-0.01,0.019-0.019,0.029-0.029 c0.181-0.128,0.265-0.332,0.264-0.645c-0.073-0.077-0.084-0.173-0.147-0.264C33.365,14.394,33.203,14.325,33.098,14.223z"/>
  </g>
  </g>
</svg>
<svg x="44" y="0" width="108" height="36" viewBox="0 0 856 256">
<g transform="translate(0, 0)">
          <svg xmlns="http://www.w3.org/2000/svg" width="256" height="256" fill="none" viewBox="0 0 256 256"><rect width="256" height="256" fill="#F4F2ED" rx="60"/><g clip-path="url(#clip0_7_155)"><path fill="#000" d="M171.474 169.034C172.62 159.493 172.276 158.101 179.377 159.641L181.184 159.802C186.648 160.048 193.791 158.923 198.059 156.976C207.095 152.785 212.452 145.782 203.544 147.624C183.223 151.815 181.747 144.931 181.747 144.931C203.213 113.08 212.192 72.65 204.437 62.757C183.315 35.757 146.745 48.5258 146.134 48.8633L145.937 48.8984C141.929 48.0547 137.499 47.5625 132.366 47.4922C123.17 47.3516 116.195 49.9039 110.893 53.9188C110.893 53.9188 45.6641 27.0453 48.6945 87.718C49.3414 100.627 67.1867 185.452 88.4914 159.788C96.2891 150.409 103.813 142.484 103.813 142.484C107.539 144.966 112.018 146.232 116.708 145.775L117.073 145.466C116.965 146.681 117.015 147.905 117.221 149.108C111.737 155.239 113.354 156.315 102.385 158.572C91.2899 160.857 97.8149 164.928 102.062 165.997C107.223 167.291 119.162 169.119 127.234 157.827L126.91 159.113C129.062 160.836 128.914 171.488 129.23 179.096C129.547 186.704 130.046 193.813 131.6 197.996C133.154 202.18 134.975 212.973 149.389 209.949C161.434 207.369 170.645 203.649 171.488 169.098"/><path stroke="#000" stroke-width="15.11" d="M171.474 169.034C172.62 159.493 172.276 158.101 179.377 159.641L181.184 159.802C186.648 160.048 193.791 158.923 198.059 156.976C207.095 152.785 212.452 145.782 203.544 147.624C183.223 151.815 181.747 144.931 181.747 144.931C203.213 113.08 212.192 72.65 204.437 62.757C183.315 35.757 146.745 48.5258 146.134 48.8633L145.937 48.8984C141.929 48.0547 137.499 47.5625 132.366 47.4922C123.17 47.3516 116.195 49.9039 110.893 53.9188C110.893 53.9188 45.6641 27.0453 48.6945 87.718C49.3414 100.627 67.1867 185.452 88.4914 159.788C96.2891 150.409 103.813 142.484 103.813 142.484C107.539 144.966 112.018 146.232 116.708 145.775L117.073 145.466C116.965 146.681 117.015 147.905 117.221 149.108C111.737 155.239 113.354 156.315 102.385 158.572C91.2899 160.857 97.8149 164.928 102.062 165.997C107.223 167.291 119.162 169.119 127.234 157.827L126.91 159.113C129.062 160.836 128.914 171.488 129.23 179.096C129.547 186.704 130.046 193.813 131.6 197.996C133.154 202.18 134.975 212.973 149.389 209.949C161.434 207.369 170.645 203.649 171.488 169.098"/><path fill="#336791" d="M203.48 147.688C183.16 151.878 181.684 144.995 181.684 144.995C203.15 113.143 212.129 72.7134 204.38 62.8204C183.259 35.8204 146.689 48.5962 146.077 48.9266L145.88 48.9618C141.414 48.0656 136.873 47.5924 132.317 47.5485C123.12 47.4079 116.145 49.9602 110.844 53.9751C110.844 53.9751 45.6078 27.1016 48.6453 87.7743C49.2922 100.684 67.1375 185.509 88.4422 159.845C96.2891 150.409 103.813 142.484 103.813 142.484C107.539 144.966 112.018 146.232 116.708 145.775L117.073 145.466C116.966 146.681 117.016 147.905 117.221 149.108C111.737 155.239 113.354 156.315 102.385 158.572C91.2899 160.857 97.8149 164.928 102.062 165.997C107.223 167.291 119.162 169.119 127.234 157.827L126.91 159.113C129.062 160.836 130.566 170.314 130.313 178.906C130.06 187.499 129.891 193.391 131.579 198.003C133.266 202.616 134.954 212.98 149.368 209.956C161.413 207.376 167.649 200.675 168.528 189.524C169.147 181.592 170.539 182.759 170.638 175.672L171.763 172.311C173.049 161.553 171.973 158.087 179.391 159.704L181.198 159.866C186.662 160.112 193.813 158.987 198.003 157.039C207.038 152.849 212.396 145.845 203.488 147.688H203.48Z"/><path stroke="#fff" stroke-linecap="round" stroke-linejoin="round" stroke-width="5.034" d="M146.07 48.5961C143.82 49.2993 182.38 34.4985 204.303 62.504C212.038 72.3969 203.073 112.827 181.606 144.678M128.098 153.784C127.536 173.795 128.239 193.946 130.194 198.784C132.148 203.621 136.346 213.198 150.767 210.118C162.812 207.538 167.199 202.538 169.098 191.506L173.548 156.231L128.098 153.784ZM110.816 53.4688C110.816 53.4688 45.5375 26.7782 48.575 87.4508C49.2219 100.36 67.0672 185.185 88.3719 159.521C96.1484 150.148 103.18 142.815 103.18 142.815L110.816 53.4688Z"/><path stroke="#fff" stroke-linecap="round" stroke-linejoin="bevel" stroke-width="5.034" d="M181.613 144.664C181.613 144.664 183.02 151.555 203.41 147.35C212.319 145.508 206.954 152.511 197.926 156.702C190.515 160.147 173.893 161.026 173.619 156.28C172.916 144.01 182.366 147.737 181.684 144.664C181.065 141.894 176.832 139.18 174.048 132.402C171.608 126.495 140.579 81.1438 182.654 87.8727C184.201 87.5563 171.685 47.7946 132.31 47.2181C92.9352 46.6415 94.1797 95.6282 94.1797 95.6282"/><path stroke="#fff" stroke-linejoin="round" stroke-width="5.034" d="M117.08 148.869C111.596 155 113.213 156.076 102.245 158.333C91.1492 160.618 97.6742 164.689 101.921 165.758C107.082 167.052 119.021 168.88 127.093 157.58C129.554 154.135 127.079 148.651 123.704 147.259C122.073 146.584 119.893 145.74 117.095 148.876L117.08 148.869Z"/><path stroke="#fff" stroke-linecap="round" stroke-linejoin="round" stroke-width="5.034" d="M116.722 148.763C116.159 145.156 117.903 140.874 119.766 135.854C122.565 128.331 129.02 120.807 123.859 96.9219C120.012 79.1329 94.1867 93.2165 94.1867 95.6282C94.1867 98.0399 95.3539 107.863 93.7648 119.288C91.6766 134.209 103.257 146.823 116.588 145.536"/><path fill="#fff" stroke="#fff" stroke-width="1.68" d="M110.577 95.2695C110.457 96.0922 112.088 98.293 114.205 98.5883C116.321 98.8836 118.128 97.168 118.248 96.3383C118.367 95.5086 116.736 94.6086 114.62 94.3133C112.503 94.018 110.682 94.4539 110.577 95.2695V95.2695Z"/><path fill="#fff" stroke="#fff" stroke-width=".837" d="M175.011 93.5891C175.123 94.4118 173.499 96.6125 171.383 96.9079C169.266 97.2032 167.445 95.4875 167.34 94.6579C167.234 93.8282 168.852 92.9282 170.968 92.6329C173.084 92.3375 174.905 92.7735 175.011 93.5891Z"/><path stroke="#fff" stroke-linecap="round" stroke-linejoin="round" stroke-width="5.034" d="M182.577 87.8867C182.928 94.3555 181.184 98.75 180.959 105.634C180.636 115.632 185.727 127.079 178.055 138.54"/></g><defs><clipPath id="clip0_7_155"><rect width="180" height="180" fill="#fff" transform="translate(38 38)"/></clipPath></defs></svg>
        </g>
         
        <g transform="translate(300, 0)">
          <svg xmlns="http://www.w3.org/2000/svg" width="256" height="256" fill="none" viewBox="0 0 256 256"><rect width="256" height="256" fill="#023430" rx="60"/><path fill="#10AA50" d="M171.173 107.591C160.636 61.1097 138.676 48.7357 133.074 39.9886C130.764 36.1353 128.717 32.1299 126.949 28C126.653 32.1292 126.109 34.7307 122.599 37.862C115.552 44.1454 85.6217 68.5354 83.1028 121.348C80.756 170.59 119.303 200.953 124.395 204.092C128.311 206.019 133.08 204.133 135.407 202.364C153.988 189.612 179.376 155.614 171.193 107.591"/><path fill="#B8C4C2" d="M128.545 177.871C127.575 190.059 126.88 197.141 124.416 204.106C124.416 204.106 126.033 215.709 127.169 228H131.188C132.147 219.345 133.61 210.753 135.572 202.268C130.369 199.708 128.745 188.566 128.545 177.871Z"/><path fill="#12924F" d="M135.565 202.275C130.307 199.846 128.786 188.469 128.552 177.871C129.852 160.388 130.231 142.849 129.688 125.326C129.412 116.132 129.818 40.1676 127.423 29.0461C129.062 32.8129 130.949 36.4662 133.074 39.9818C138.676 48.7358 160.643 61.1097 171.173 107.591C179.376 155.532 154.126 189.44 135.565 202.275Z"/></svg>
        </g>
         
        <g transform="translate(600, 0)">
          <svg xmlns="http://www.w3.org/2000/svg" width="256" height="256" fill="none" viewBox="0 0 256 256"><rect width="256" height="256" fill="#F4F2ED" rx="60"/><g clip-path="url(#clip0_7_217)"><path fill="#A41E11" d="M220.161 174.468C209.488 180.035 154.204 202.765 142.434 208.899C130.663 215.034 124.126 214.976 114.826 210.532C105.526 206.089 46.6945 182.326 36.0904 177.257C30.7884 174.722 28.0101 172.591 28.0101 170.576V150.36C28.0101 150.36 104.609 133.685 116.978 129.247C129.348 124.809 133.627 124.65 144.157 128.505C154.687 132.359 217.606 143.711 228.003 147.523V167.459C228.003 169.458 225.607 171.7 220.172 174.479L220.161 174.468Z"/><path fill="#D82C20" d="M220.162 154.246C209.488 159.813 154.204 182.543 142.434 188.677C130.663 194.812 124.126 194.753 114.826 190.31C105.526 185.867 46.6946 162.103 36.0905 157.035C25.4864 151.966 25.2743 148.483 35.6822 144.405L116.973 112.932C129.338 108.5 133.622 108.335 144.151 112.19C154.681 116.045 209.632 137.916 220.024 141.786C230.416 145.657 230.824 148.732 220.151 154.299L220.162 154.246Z"/><path fill="#A41E11" d="M220.161 141.5C209.488 147.067 154.204 169.797 142.434 175.931C130.663 182.066 124.126 182.007 114.826 177.564C105.526 173.121 46.6945 149.357 36.0904 144.289C30.7884 141.754 28.0101 139.623 28.0101 137.608V117.391C28.0101 117.391 104.609 100.716 116.978 96.2787C129.348 91.8409 133.627 91.6818 144.157 95.5364C154.687 99.391 217.606 110.743 228.003 114.555V134.491C228.003 136.489 225.607 138.732 220.172 141.51L220.161 141.5Z"/><path fill="#D82C20" d="M220.162 121.283C209.488 126.85 154.204 149.58 142.434 155.715C130.663 161.849 124.126 161.791 114.826 157.348C105.526 152.904 46.6946 129.141 36.0905 124.072C25.4864 119.003 25.2743 115.52 35.6822 111.442L116.973 79.9748C129.338 75.537 133.622 75.378 144.151 79.2326C154.681 83.0871 209.632 104.963 220.034 108.765C230.437 112.567 230.835 115.711 220.162 121.278V121.283Z"/><path fill="#A41E11" d="M220.161 107.312C209.488 112.879 154.204 135.609 142.434 141.749C130.663 147.889 124.126 147.825 114.826 143.382C105.526 138.939 46.6945 115.175 36.0904 110.106C30.7884 107.572 28.0101 105.441 28.0101 103.426V83.1985C28.0101 83.1985 104.609 66.5236 116.978 62.0858C129.348 57.648 133.627 57.4889 144.157 61.3435C154.687 65.1981 217.606 76.5498 228.003 80.3619V100.298C228.003 102.297 225.607 104.539 220.172 107.318L220.161 107.312Z"/><path fill="#D82C20" d="M220.162 87.0902C209.488 92.6573 154.204 115.387 142.434 121.522C130.663 127.656 124.126 127.598 114.826 123.155C105.526 118.712 46.6946 94.9478 36.0905 89.8791C25.4864 84.8103 25.2743 81.3269 35.6822 77.2496L116.973 45.782C129.338 41.3442 133.622 41.1851 144.151 45.0397C154.681 48.8943 209.632 70.7705 220.034 74.5721C230.437 78.3736 230.835 81.5177 220.162 87.0849V87.0902Z"/><path fill="#fff" d="M132.996 78.7554L126.729 68.3369L106.719 66.5342L121.65 61.1473L117.169 52.8761L131.146 58.3372L144.326 54.0213L140.763 62.5682L154.199 67.6052L136.872 69.4079L132.996 78.7554ZM99.6143 99.497L145.954 92.3816L131.957 112.911L99.6143 99.497Z"/><path fill="#fff" d="M87.1226 92.0158C100.803 92.0158 111.894 87.7168 111.894 82.4138C111.894 77.1107 100.803 72.8118 87.1226 72.8118C73.4419 72.8118 62.3515 77.1107 62.3515 82.4138C62.3515 87.7168 73.4419 92.0158 87.1226 92.0158Z"/><path fill="#7A0C00" d="M202.113 81.0141L174.702 91.8408L174.681 70.1714L202.113 81.0141Z"/><path fill="#AD2115" d="M174.707 91.8408L171.738 93.0072L144.348 82.1805L174.691 70.1766L174.707 91.8408Z"/></g><defs><clipPath id="clip0_7_217"><rect width="200" height="200" fill="#fff" transform="translate(28 28)"/></clipPath></defs></svg>
        </g>
</svg>
</svg>
